<?xml version="1.0" encoding="UTF-8"?>
<svg id="Layer_1" data-name="Layer 1" xmlns="http://www.w3.org/2000/svg" viewBox="0 0 40 40">
  <path d="M21.72458,12.81804c-3.25042-.6221-6.65176.8598-8.25461,3.81856-1.55108,2.87423-1.26286,6.74783.90581,9.19766,2.51139,2.70417,6.8983,3.30295,10.0957,1.41545,2.80323-1.65804,4.1418-5.22191,3.5377-8.37061-.61388-3.24809-3.10614-5.45653-6.28459-6.06106Z" fill="#5b6363"/>
  <path d="M27.35525,7.06541c-5.29005.03389-10.67752-.2628-15.94278-.1681-2.88712-.02466-4.64978,1.87053-4.64978,4.74594-.12852,5.44135-.06933,10.97113.15849,16.3501.02972,3.93764,1.69344,5.10696,5.45506,4.85916,4.89993-.08993,10.11969.1318,15.0996.03171,1.61074-.06362,3.60674-.10794,4.72697-1.3752l.09097-.11154c.83854-1.06507.89898-2.66504.89898-4.02184,0-4.78899,0-9.61852-.00987-14.42768.20208-4.21411-1.62608-6.09542-5.82764-5.88254ZM24.17037,29.89416c-3.82688,1.53285-8.56946.56921-11.37666-2.45565-3.16783-3.57792-3.3763-9.30369-.45727-13.14202,2.60676-3.43192,7.18698-4.67908,11.20208-3.36213,3.95746,1.3014,6.63648,4.69262,6.85827,8.9282.21173,4.30725-2.20652,8.42273-6.22642,10.0316ZM30.56814,12.44766c-.57477.47085-1.54206.40962-2.05566-.12098-.50332-.53049-.47309-1.45018.06047-1.97128.69488-.65463,1.76328-.44388,2.22714.12754.46403.57175.35318,1.49344-.23195,1.96472Z" fill="#5b6363"/>
  <path d="M37.93131,17.69964v-8.61215c0-2.45471-.14214-4.94815-2.7054-6.1707-1.13328-.54155-2.31586-.46425-3.53776-.44723-1.69479.0236-3.37698.01669-5.06699.00992-3.2031-.03608-6.39783-.11215-9.58445-.16813-3.12899-.0563-6.24995-.08257-9.36315-.02852-2.38442.05375-4.62605.96565-5.36578,3.50612-.35478,1.20443-.22675,2.55297-.22675,3.79297,0,1.58009.0296,3.16966.05921,4.74949.06908,3.06961.16754,6.12905.18728,9.19919.00987,2.72022-.20701,5.43136-.24649,8.1615-.02936,2.26007.51276,4.92989,2.99071,5.60963,1.52281.4206,3.26539.12989,4.82197.11984,1.7273-.02025,3.457-.02041,5.18908-.01051,3.41136.02979,6.84228.11012,10.27229.13016,2.83518.02012,5.97974.37423,8.74767-.40538.91065-.25348,2.0952-.52755,2.81459-1.18695.95304-.86281,1.01396-2.31348,1.02412-3.51052,0-4.90943,0-9.82927-.01015-14.73875ZM29.24767,34.83195c-5.7493.30902-11.67204-.10788-17.25916.02925-5.02795.31612-7.00578-1.88446-7.03522-6.86027-.22723-5.23469-.23736-10.42008-.18767-15.69622-.04969-2.83259.68182-6.23533,3.80932-7.0268,6.15915-1.03444,12.53905.01913,18.84048-.2639,5.46429-.24274,7.9825,1.98427,7.76997,7.54971.02026,4.37712.01013,8.86608.02026,13.09133v.19246c.21254,4.94437-.35431,8.70462-5.95798,8.98442Z" fill="#5b6363"/>
</svg>