<?xml version="1.0" encoding="UTF-8"?>
<svg id="Layer_1" data-name="Layer 1" xmlns="http://www.w3.org/2000/svg" viewBox="0 0 40 40">
  <path d="M38.98277,13.52553l-.03196-.19306c-.89062-7.80029-7.339-7.62872-13.15451-7.96126-4.06622-.2575-7.78929.17171-11.6305.10727-4.60295.13949-11.4804-.30045-12.95046,5.63293-.81544,4.19523-.59017,8.64796-.63313,12.93972-.2038,6.71661,2.71483,10.4182,8.95915,10.42894,5.79377.08592,11.49114.39698,17.27444.11801,3.3367-.24676,7.36022-.20393,9.84951-2.53212,4.045-4.12005,2.51077-13.00403,2.31746-18.54043ZM26.601,21.04685c-.49351.51499-1.1586.90136-1.73803,1.30896-.55795.40785-1.12664.81544-1.70607,1.20182-1.266.85827-2.56421,1.67372-3.93761,2.36042-1.15886.56869-2.62865,1.41635-3.91613.72953-.72979-.38611-.81544-1.0085-.93358-1.75951-.12862-.77249-.22528-1.5451-.28971-2.31759-.13936-1.64163-.1501-3.28313-.07492-4.92476.04296-.82618.0964-1.65237.17158-2.46781.06444-.63313.04296-1.3197.55795-1.77038.90136-.78323,2.52125.02148,3.44409.40772,1.39487.57943,2.72531,1.28748,4.03426,2.04935,1.36265.8047,2.72531,1.65224,3.95909,2.65013.30045.24676.62239.50438.81544.83692.33267.56856.03222,1.26613-.38637,1.6952Z" fill="#5b6363"/>
</svg>