<?xml version="1.0" encoding="UTF-8"?>
<svg id="Layer_1" data-name="Layer 1" xmlns="http://www.w3.org/2000/svg" viewBox="0 0 40 40">
  <path d="M35.09587,10.7282c-3.48193-.94263-4.46655-4.36426-4.86011-7.6106-.01111-.0918-.0531-.16064-.10547-.21716-.00391-.00525-.00879-.00964-.01306-.01477-.0166-.01611-.03186-.03247-.0509-.04541-.05481-.04761-.11963-.08643-.20557-.09766-1.47327-.19287-2.94922-.36841-4.42664-.52686-1.78625-.19141-3.7467-.56274-5.53589-.22534-1.06604.20117-1.87952.71729-2.10242,1.83374-.34839,1.74414-.00049,3.87634.12671,5.63647.25171,3.48486.78833,6.93945,1.55066,10.34729-4.80896-3.63245-12.19861-1.76318-14.21252,4.18176-.96191,2.84033-.86084,6.34424.54614,9.02063,1.40991,2.68225,4.13599,4.40723,7.07739,4.93738,4.23328.76318,8.37671-.66382,10.5415-4.49988,2.1521-3.81335,2.37195-8.58167,2.19739-12.85413-.16467-4.0293-.74036-8.11694-1.77441-12.02466,1.01233.01257,2.02356.07275,3.03015.1814.39526,1.58569.87915,3.28735,2.17383,4.37305,1.57825,1.32349,3.89001,1.62085,5.84387,1.9519.23621.04004.47473-.09839.47473-.36157v-3.6239c0-.16406-.11646-.3186-.27539-.36169ZM11.76786,32.59624c-2.01428-1.06311-2.57385-3.76416-2.17932-5.84143.20435-1.07593.66235-2.13452,1.45947-2.9043.71704-.6925,1.67822-1.08521,2.65991-1.20801,1.76782-.22144,4.02246.33374,5.07922,1.88354,1.53601,2.2522.52515,5.45264-1.27051,7.23511-1.45923,1.39258-3.95142,1.78357-5.74878.83508Z" fill="#5b6363"/>
</svg>