<?xml version="1.0" encoding="UTF-8"?>
<svg id="Layer_1" data-name="Layer 1" xmlns="http://www.w3.org/2000/svg" viewBox="0 0 40 40">
  <path d="M26.9545,11.57353c.84814.60474,1.97607.91431,3.01221.89783,1.22168-.01941,2.34277-.45813,3.28296-1.22522.82275-.67151,1.37695-1.64746,1.69556-2.64868.65869-2.06958.22192-4.5542-1.32251-6.1239-1.71265-1.74036-4.74854-2.1698-6.74072-.64209-.17725.13599-.33447.26941-.46436.42346-.12036.07166-.23535.15552-.33496.26733-1.3208,1.48389-1.84448,3.62451-1.41016,5.56689-3.31665,2.63989-6.75464,5.12036-10.30835,7.4314-1.06152-1.23547-2.6333-1.99524-4.29077-2.07202-.125-.02734-.25415-.04126-.39087-.02307-.18066.00354-.3584.04504-.52808.10779-.99854.21777-1.89038.65479-2.63354,1.41003-.78809.80103-1.38477,1.86597-1.62329,2.96704-.51978,2.39954.4397,4.76355,2.42358,6.18481.86182.61731,2.00366.99036,3.06934.93677.94971-.04773,1.81982-.3667,2.58789-.88306,3.76733,3.19482,7.74585,6.13611,11.91455,8.78552-.11304.88477-.04565,1.79248.24463,2.63892.38037,1.11011,1.03418,2.00549,1.98975,2.68689.7981.56909,1.85913.86023,2.83423.84485,1.14966-.01819,2.20459-.43091,3.08911-1.15283.77417-.63184,1.29565-1.55005,1.59546-2.49231.61963-1.94739.20898-4.28528-1.24438-5.76233-1.61133-1.63745-4.46826-2.0415-6.34253-.60413-.16699.12805-.3147.25354-.43701.39856-.11353.06738-.22144.14624-.31519.25146-.10059.11304-.18579.23779-.27661.35864-3.87256-2.48779-7.57056-5.22998-11.08154-8.20728.573-1.11597.84204-2.40674.6792-3.62744,3.59814-2.32959,7.08643-4.82312,10.45239-7.47754.26245.2821.54541.54919.87402.78369Z" fill="#5b6363"/>
</svg>