<?xml version="1.0" encoding="UTF-8"?><svg id="Layer_1" xmlns="http://www.w3.org/2000/svg" width="40" height="40" viewBox="0 0 40 40"><defs><style>.cls-1{fill:#49647c;}</style></defs><path class="cls-1" d="M21.725,12.818c-3.25-.622-6.652.86-8.255,3.819-1.551,2.874-1.263,6.748.906,9.198,2.511,2.704,6.898,3.303,10.096,1.415,2.803-1.658,4.142-5.222,3.538-8.371-.614-3.248-3.106-5.457-6.285-6.061Z"/><path class="cls-1" d="M27.355,7.065c-5.29.034-10.678-.263-15.943-.168-2.887-.025-4.65,1.871-4.65,4.746-.129,5.441-.069,10.971.158,16.35.03,3.938,1.693,5.107,5.455,4.859,4.9-.09,10.12.132,15.1.032,1.611-.064,3.607-.108,4.727-1.375l.091-.112c.839-1.065.899-2.665.899-4.022,0-4.789,0-9.619-.01-14.428.202-4.214-1.626-6.095-5.828-5.883ZM24.17,29.894c-3.827,1.533-8.569.569-11.377-2.456-3.168-3.578-3.376-9.304-.457-13.142,2.607-3.432,7.187-4.679,11.202-3.362,3.957,1.301,6.636,4.693,6.858,8.928.212,4.307-2.207,8.423-6.226,10.032ZM30.568,12.448c-.575.471-1.542.41-2.056-.121-.503-.53-.473-1.45.06-1.971.695-.655,1.763-.444,2.227.128.464.572.353,1.493-.232,1.965Z"/><path class="cls-1" d="M37.931,17.7v-8.612c0-2.455-.142-4.948-2.705-6.171-1.133-.542-2.316-.464-3.538-.447-1.695.024-3.377.017-5.067.01-3.203-.036-6.398-.112-9.584-.168-3.129-.056-6.25-.083-9.363-.029-2.384.054-4.626.966-5.366,3.506-.355,1.204-.227,2.553-.227,3.793,0,1.58.03,3.17.059,4.749.069,3.07.168,6.129.187,9.199.01,2.72-.207,5.431-.246,8.162-.029,2.26.513,4.93,2.991,5.61,1.523.421,3.265.13,4.822.12,1.727-.02,3.457-.02,5.189-.011,3.411.03,6.842.11,10.272.13,2.835.02,5.98.374,8.748-.405.911-.253,2.095-.528,2.815-1.187.953-.863,1.014-2.313,1.024-3.511,0-4.909,0-9.829-.01-14.739ZM29.248,34.832c-5.749.309-11.672-.108-17.259.029-5.028.316-7.006-1.884-7.035-6.86-.227-5.235-.237-10.42-.188-15.696-.05-2.833.682-6.235,3.809-7.027,6.159-1.034,12.539.019,18.84-.264,5.464-.243,7.983,1.984,7.77,7.55.02,4.377.01,8.866.02,13.091v.192c.213,4.944-.354,8.705-5.958,8.984Z"/></svg>