<?xml version="1.0" encoding="UTF-8"?><svg id="Layer_1" xmlns="http://www.w3.org/2000/svg" width="40" height="40" viewBox="0 0 40 40"><defs><style>.cls-1{fill:#49647c;}</style></defs><path class="cls-1" d="M35.166,22.645c-1.236,1.289-2.901,2.257-4.352,3.278-1.397,1.021-2.821,2.042-4.272,3.009-3.17,2.149-6.421,4.191-9.859,5.91-2.902,1.424-6.582,3.546-9.806,1.827-1.827-.967-2.042-2.525-2.338-4.406-.322-1.934-.564-3.869-.725-5.803-.349-4.111-.376-8.221-.188-12.331.108-2.069.241-4.137.43-6.179.161-1.585.108-3.304,1.397-4.433,2.257-1.961,6.313.054,8.624,1.021,3.493,1.451,6.824,3.224,10.101,5.131,3.412,2.015,6.824,4.137,9.913,6.636.752.618,1.558,1.263,2.042,2.096.833,1.424.081,3.17-.967,4.245Z"/></svg>