<?xml version="1.0" encoding="UTF-8"?><svg id="Layer_1" xmlns="http://www.w3.org/2000/svg" width="40" height="40" viewBox="0 0 40 40"><defs><style>.cls-1{fill:#49647c;}</style></defs><path class="cls-1" d="M38.804,11.334c-.792-.418-1.731-.4-2.47.018-.377-2.404-1.494-4.576-4.07-5.49-1.918-.681-4.148-.453-6.148-.457-2.322-.005-4.645-.011-6.967-.016-2.216-.005-4.432-.021-6.648-.015-1.871.005-3.776.108-5.528.814C2.776,7.88,1.622,12.265,1.758,16.4c.104,3.139,5,3.153,4.896,0-.083-2.505.131-5.34,3.03-5.95,1.334-.281,2.75-.187,4.106-.183,1.787.004,3.573.008,5.359.013,3.361.008,6.729-.049,10.089.026.976.021,1.778.034,2.138,1.002.013.035.016.074.027.11-.055-.034-.11-.069-.166-.104-1.087-.68-2.745-.266-3.349.877-.636,1.202-.282,2.62.878,3.345.812.508,1.624,1.016,2.437,1.524l1.187.743c.532.332,1.051.701,1.656.891.85.267,1.829.163,2.583-.325.479-.31.861-.709,1.227-1.138.679-.796,1.304-1.644,1.827-2.55.64-1.109.295-2.726-.878-3.345Z"/><path class="cls-1" d="M33.346,23.599c.083,2.505-.131,5.341-3.029,5.951-1.334.281-2.75.187-4.105.184l-5.36-.013c-3.361-.008-6.729.049-10.089-.026-.976-.022-1.777-.034-2.138-1.002-.013-.035-.015-.074-.027-.11.055.035.11.069.166.104,1.087.68,2.745.266,3.349-.877.636-1.202.282-2.62-.878-3.345-.812-.508-1.624-1.016-2.437-1.524-.396-.248-.791-.495-1.187-.743-.531-.332-1.05-.701-1.656-.891-.85-.268-1.829-.163-2.583.325-.479.31-.861.709-1.227,1.138-.679.796-1.304,1.644-1.827,2.55-.64,1.109-.295,2.726.878,3.345.792.418,1.731.4,2.47-.018.377,2.404,1.494,4.576,4.071,5.49,1.918.681,4.148.452,6.148.457,2.322.005,4.645.011,6.967.016,2.216.005,4.432.021,6.648.015,1.871-.005,3.776-.108,5.528-.814,4.197-1.692,5.352-6.078,5.215-10.213-.104-3.139-5-3.153-4.896,0Z"/></svg>