<?xml version="1.0" encoding="UTF-8"?><svg id="Layer_1" xmlns="http://www.w3.org/2000/svg" width="40" height="40" viewBox="0 0 40 40"><defs><style>.cls-1{fill:#49647c;}</style></defs><path class="cls-1" d="M16.472,20.838c.049-3.26.083-6.508.026-9.739-.066-3.888-.047-7.183-2.451-8.387-1.273-.604-2.659-.528-4.027-.518-1.884.029-4.194.015-5.258,2.159-1.021,2.136-.713,5.218-.693,7.841.178,5.165.008,10.33-.128,15.296-.089,4.252-.077,8.483,2.59,9.735,2.788.925,7.155,1.02,9.304-1.64l.1-.163c.479-.793.644-1.97.679-3.01-.023-3.786-.253-7.692-.142-11.574Z"/><path class="cls-1" d="M35.94,20.838c.049-3.26.083-6.508.025-9.739-.066-3.888-.047-7.183-2.45-8.387-1.273-.604-2.659-.528-4.027-.518-1.884.029-4.194.015-5.258,2.159-1.021,2.136-.713,5.218-.693,7.841.178,5.165.008,10.33-.128,15.296-.089,4.252-.077,8.483,2.59,9.735,2.788.925,7.156,1.02,9.305-1.64l.1-.163c.479-.793.644-1.97.679-3.01-.023-3.786-.253-7.692-.142-11.574Z"/></svg>