<?xml version="1.0" encoding="UTF-8"?><svg id="Layer_1" xmlns="http://www.w3.org/2000/svg" width="40" height="40" viewBox="0 0 40 40"><defs><style>.cls-1{fill:#49647c;}</style></defs><path class="cls-1" d="M35.096,10.728c-3.482-.943-4.467-4.364-4.86-7.611-.011-.092-.053-.161-.105-.217-.004-.005-.009-.01-.013-.015-.017-.016-.032-.032-.051-.045-.055-.048-.12-.086-.206-.098-1.473-.193-2.949-.368-4.427-.527-1.786-.191-3.747-.563-5.536-.225-1.066.201-1.88.717-2.102,1.834-.348,1.744,0,3.876.127,5.636.252,3.485.788,6.939,1.551,10.347-4.809-3.632-12.199-1.763-14.213,4.182-.962,2.84-.861,6.344.546,9.021,1.41,2.682,4.136,4.407,7.077,4.937,4.233.763,8.377-.664,10.542-4.5,2.152-3.813,2.372-8.582,2.197-12.854-.165-4.029-.74-8.117-1.774-12.025,1.012.013,2.024.073,3.03.181.395,1.586.879,3.287,2.174,4.373,1.578,1.323,3.89,1.621,5.844,1.952.236.04.475-.098.475-.362v-3.624c0-.164-.116-.319-.275-.362ZM11.768,32.596c-2.014-1.063-2.574-3.764-2.179-5.841.204-1.076.662-2.135,1.459-2.904.717-.693,1.678-1.085,2.66-1.208,1.768-.221,4.022.334,5.079,1.884,1.536,2.252.525,5.453-1.271,7.235-1.459,1.393-3.951,1.784-5.749.835Z"/></svg>