<?xml version="1.0" encoding="UTF-8"?><svg id="Layer_1" xmlns="http://www.w3.org/2000/svg" width="40" height="40" viewBox="0 0 40 40"><defs><style>.cls-1{fill:#49647c;}</style></defs><path class="cls-1" d="M26.954,11.574c.848.605,1.976.914,3.012.898,1.222-.019,2.343-.458,3.283-1.225.823-.672,1.377-1.647,1.696-2.649.659-2.07.222-4.554-1.323-6.124-1.713-1.74-4.749-2.17-6.741-.642-.177.136-.334.269-.464.423-.12.072-.235.156-.335.267-1.321,1.484-1.844,3.625-1.41,5.567-3.317,2.64-6.755,5.12-10.308,7.431-1.062-1.235-2.633-1.995-4.291-2.072-.125-.027-.254-.041-.391-.023-.181.004-.358.045-.528.108-.999.218-1.89.655-2.634,1.41-.788.801-1.385,1.866-1.623,2.967-.52,2.4.44,4.764,2.424,6.185.862.617,2.004.99,3.069.937.95-.048,1.82-.367,2.588-.883,3.767,3.195,7.746,6.136,11.915,8.786-.113.885-.046,1.792.245,2.639.38,1.11,1.034,2.005,1.99,2.687.798.569,1.859.86,2.834.845,1.15-.018,2.205-.431,3.089-1.153.774-.632,1.296-1.55,1.595-2.492.62-1.947.209-4.285-1.244-5.762-1.611-1.637-4.468-2.042-6.343-.604-.167.128-.315.254-.437.399-.114.067-.221.146-.315.251-.101.113-.186.238-.277.359-3.873-2.488-7.571-5.23-11.082-8.207.573-1.116.842-2.407.679-3.627,3.598-2.33,7.086-4.823,10.452-7.478.262.282.545.549.874.784Z"/></svg>