<?xml version="1.0" encoding="UTF-8"?><svg id="Layer_1" xmlns="http://www.w3.org/2000/svg" width="40" height="40" viewBox="0 0 40 40"><defs><style>.cls-1{fill:#49647c;}</style></defs><path class="cls-1" d="M38.983,13.526l-.032-.193c-.891-7.8-7.339-7.629-13.155-7.961-4.066-.257-7.789.172-11.63.107-4.603.139-11.48-.3-12.95,5.633-.815,4.195-.59,8.648-.633,12.94-.204,6.717,2.715,10.418,8.959,10.429,5.794.086,11.491.397,17.274.118,3.337-.247,7.36-.204,9.85-2.532,4.045-4.12,2.511-13.004,2.317-18.54ZM26.601,21.047c-.494.515-1.159.901-1.738,1.309-.558.408-1.127.815-1.706,1.202-1.266.858-2.564,1.674-3.938,2.36-1.159.569-2.629,1.416-3.916.73-.73-.386-.815-1.009-.934-1.76-.129-.772-.225-1.545-.29-2.318-.139-1.642-.15-3.283-.075-4.925.043-.826.096-1.652.172-2.468.064-.633.043-1.32.558-1.77.901-.783,2.521.021,3.444.408,1.395.579,2.725,1.287,4.034,2.049,1.363.805,2.725,1.652,3.959,2.65.3.247.622.504.815.837.333.569.032,1.266-.386,1.695Z"/></svg>